<svg version="1.1" id="Layer_1" xmlns="http://www.w3.org/2000/svg" xmlns:xlink="http://www.w3.org/1999/xlink" x="0px" y="0px" viewBox="0 0 111.5 18.1" style="enable-background:new 0 0 111.5 18.1;" xml:space="preserve"><g><path class="st0" d="M10.5,16.9L6.2,0.8L6,0.2H4.8L4.6,0.8L0.3,16.9v0L0,17.9h1.7L2,17l0.9-3.3H8l1,3.6l0,0l0.2,0.6l1.7,0
                                                         L10.5,16.9C10.5,16.9,10.5,16.9,10.5,16.9z M3.3,12l2.1-8l2.1,8H3.3z"></path><polygon class="st0" points="70.1,0.2 69.3,0.2 63.9,0.2 63.2,0.2 62.4,0.2 62.4,1 62.4,1.3 62.4,16.4 62.4,17.1 62.4,17.9 
                                                                 63.2,17.9 63.7,17.9 68.8,17.9 70.1,17.9 70.9,17.9 70.9,16.3 70.1,16.3 68.8,16.3 64.1,16.3 64.1,9.3 68.2,9.3 68.5,9.3 69.3,9.3 
                                                                 69.3,7.6 68.5,7.6 68.2,7.6 64.1,7.6 64.1,1.8 69.3,1.8 70.1,1.8 70.9,1.8 70.9,0.2 	"></polygon><polygon class="st0" points="82.6,0.2 82.6,1 82.6,1.6 82.6,13.6 76.3,0.7 76.3,0.7 76,0.2 74.7,0.2 74.7,0.9 74.7,1.3 74.7,16.1 
                                                                 74.7,17.1 74.7,17.9 76.3,17.9 76.3,17.1 76.3,16.1 76.3,4.5 82.6,17.4 82.6,17.4 82.9,17.9 84.2,17.9 84.2,17.1 84.2,16.9 
                                                                 84.2,1.6 84.2,1 84.2,0.2 	"></polygon><polygon class="st0" points="98,0.2 88.5,0.2 87.7,0.2 87.7,1.8 88.5,1.8 92.4,1.8 92.4,15.5 92.4,17.1 92.4,17.9 94.1,17.9 
                                                                 94.1,17.1 94.1,15.5 94.1,1.8 98,1.8 98.9,1.8 98.9,0.2 	"></polygon><path class="st0" d="M25.4,0.2l-0.3,0.5c0,0,0,0,0,0l-4.7,9.4l-4.3-8.8l-0.6-1.2h-1.3v0.9v0.3v15.3v0.4v0.8h1.6v-0.8v-0.4V4.5
                                                         l4,8.1h1.2l0.2-0.5l3.8-7.6v12.6v0v0.8h1.6v-0.8v0v-16V1V0.2H25.4z"></path><path class="st0" d="M56.5,0.2l-0.3,0.5c0,0,0,0,0,0l-4.7,9.4l-4.3-8.8l-0.6-1.2h-1.3v0.9v0.3v15.3v0.4v0.8H47v-0.8v-0.4V4.5l4,8.1
                                                         h1.2l0.2-0.5l3.8-7.6v12.6v0v0.8h1.6v-0.8v0v-16V1V0.2H56.5z"></path><path class="st0" d="M41.5,9c0-4.5-1.3-9-5.5-9s-5.5,4.5-5.5,9c0,0,0,0,0,0c0,0,0,0,0,0c0,4.5,1.3,9,5.5,9S41.5,13.6,41.5,9
                                                         C41.5,9.1,41.5,9.1,41.5,9C41.5,9.1,41.5,9.1,41.5,9z M39.9,9.1c0,3.7-0.9,7.4-3.8,7.4c-2.9,0-3.8-3.7-3.8-7.4c0,0,0,0,0,0
                                                         c0,0,0,0,0,0c0-3.7,0.9-7.4,3.8-7.4C39,1.6,39.9,5.4,39.9,9.1C39.9,9.1,39.9,9.1,39.9,9.1C39.9,9.1,39.9,9.1,39.9,9.1z"></path><path class="st0" d="M111.5,9.1c0-4.5-1.3-9-5.5-9c-4.2,0-5.5,4.5-5.5,9c0,0,0,0,0,0s0,0,0,0c0,4.5,1.3,9,5.5,9
                                                         C110.2,18.1,111.5,13.6,111.5,9.1C111.5,9.1,111.5,9.1,111.5,9.1C111.5,9.1,111.5,9.1,111.5,9.1z M109.8,9.1c0,3.7-0.9,7.4-3.8,7.4
                                                         c-2.9,0-3.8-3.7-3.8-7.4c0,0,0,0,0,0c0,0,0,0,0,0c0-3.7,0.9-7.4,3.8-7.4C108.9,1.7,109.8,5.4,109.8,9.1
                                                         C109.8,9.1,109.8,9.1,109.8,9.1C109.8,9.1,109.8,9.1,109.8,9.1z"></path></g></svg>