<?xml version="1.0" encoding="utf-8"?>
<!-- Generator: Adobe Illustrator 25.4.1, SVG Export Plug-In . SVG Version: 6.00 Build 0)  -->
<svg version="1.1" id="레이어_1" xmlns="http://www.w3.org/2000/svg" xmlns:xlink="http://www.w3.org/1999/xlink" x="0px"
	 y="0px" viewBox="0 0 282.6 30.7" style="enable-background:new 0 0 282.6 30.7;" xml:space="preserve">
<g id="XMLID_105_">
	<path id="XMLID_106_" class="st0" d="M278,30.3h4.7V0.2H278V30.3z M267.7,30.3h4.7V0.2h-4.7V30.3z M253,13c2.8,0,4.8,1.4,5.3,4.3
		h-10.9C248.2,14.7,250.5,13,253,13 M253.4,30.6c3.7,0,6.8-1.6,8.7-3.7l-3.1-3.4c-1.1,1.2-3,2.4-5.5,2.4c-3.2,0-5.6-2-6.1-5h16.2
		v-1.3c-0.3-6.8-4.2-10.9-10.1-10.9c-6.2,0-10.9,4.7-10.9,10.9C242.5,25.9,247.1,30.6,253.4,30.6 M222.7,12.9V4.7h5.1
		c3,0,4.5,1.9,4.5,4.1c0,2.3-1.5,4.1-4.5,4.1H222.7z M222.7,25.7V17h6.6c3.4,0,5,1.9,5,4.4s-1.7,4.3-5,4.3H222.7z M217.7,30.3h11.5
		c5.8,0,10-3.4,10-8.7c0-3.7-2-6.2-4.8-7.4c1.8-1.3,2.8-3.1,2.8-5.9c0-4.5-3.4-8.2-8.9-8.2h-10.6V30.3z M182.9,30.3h4.7V16.9
		c0.8-2.5,2.7-3.7,5-3.7c3.1,0,4.8,2.5,4.8,4.7v12.3h4.7V17.9c0-5.5-3.4-9.1-8.6-9.1c-2.2,0-4.5,0.7-5.9,2.3v-2h-4.7V30.3z
		 M167.5,30.6c6.3,0,11-4.7,11-10.9s-4.7-10.9-11-10.9s-11,4.7-11,10.9S161.2,30.6,167.5,30.6 M167.5,26.2c-3.6,0-6.2-2.8-6.2-6.5
		s2.5-6.5,6.2-6.5c3.6,0,6.2,2.8,6.2,6.5S171.1,26.2,167.5,26.2 M146.2,30.6c4.5,0,7.6-2.6,7.6-6.3c0-3.3-2-5.2-5.6-6.6l-1.5-0.6
		c-2-0.8-2.7-1.5-2.7-2.6s1.1-1.7,2.3-1.7c1.4,0,2.4,0.6,3.1,1.9l3.4-2.4c-1.6-2.6-3.9-3.7-6.6-3.7c-3.9,0-6.8,2.5-6.8,6
		c0,2.9,1.6,5.1,5.2,6.5l1.5,0.6c2,0.7,2.8,1.4,2.8,2.7c0,1.1-1.1,2-2.7,2c-2.1,0-3.3-1-4.3-2.7l-3.6,2.5
		C140.1,29.3,142.9,30.6,146.2,30.6 M128.4,30.6c4.5,0,7.6-2.6,7.6-6.3c0-3.3-2-5.2-5.6-6.6l-1.5-0.6c-2-0.8-2.7-1.5-2.7-2.6
		s1.1-1.7,2.3-1.7c1.4,0,2.4,0.6,3.1,1.9l3.4-2.4c-1.6-2.6-3.9-3.7-6.6-3.7c-3.9,0-6.8,2.5-6.8,6c0,2.9,1.6,5.1,5.2,6.5l1.5,0.6
		c2,0.7,2.8,1.4,2.8,2.7c0,1.1-1.1,2-2.7,2c-2.1,0-3.3-1-4.3-2.7l-3.6,2.5C122.2,29.3,125,30.6,128.4,30.6 M107.1,30.3h4.7V16
		c0.9-1.8,2.7-2.5,4.7-2.5c0.9,0,1.7,0.1,2.3,0.3V8.9c-0.5-0.1-1-0.1-1.5-0.1c-2.3,0-4.1,0.8-5.5,2.4V9.1h-4.7V30.3z M92.3,13
		c2.8,0,4.8,1.4,5.3,4.3H86.8C87.5,14.7,89.8,13,92.3,13 M92.8,30.6c3.7,0,6.8-1.6,8.7-3.7l-3.1-3.4c-1.1,1.2-3,2.4-5.5,2.4
		c-3.2,0-5.6-2-6.1-5H103v-1.3c-0.3-6.8-4.2-10.9-10.1-10.9C86.7,8.7,82,13.4,82,19.6C81.8,25.9,86.5,30.6,92.8,30.6 M67.1,26.2
		c-3.6,0-6.1-2.8-6.1-6.5s2.5-6.5,6.1-6.5c2.3,0,4.5,1.1,5.6,2.9v7.2C71.6,25,69.4,26.2,67.1,26.2 M72.7,30.3h4.7V0.2h-4.7v10.5
		c-1.5-1.2-3.4-1.9-5.7-1.9c-6.3,0-10.9,4.7-10.9,10.9S60.7,30.6,67,30.6c2.2,0,4.2-0.7,5.7-1.9V30.3z M32.9,30.3h4.7V16.9
		c0.8-2.5,2.7-3.7,5-3.7c3.1,0,4.8,2.5,4.8,4.7v12.3h4.7V17.9c0-5.5-3.4-9.1-8.6-9.1c-2.2,0-4.5,0.7-5.9,2.3v-2h-4.7
		C32.9,9.1,32.9,30.3,32.9,30.3z M15.2,10.2l4.2,8.9H11L15.2,10.2z M0.4,30.3h5.3l3.1-6.7h12.6l3.1,6.7h5.3L15.2-0.2L0.4,30.3z"/>
</g>
</svg>
