<?xml version="1.0" encoding="utf-8"?>
<!-- Generator: Adobe Illustrator 24.3.0, SVG Export Plug-In . SVG Version: 6.00 Build 0)  -->
<svg version="1.1" id="Layer_1" xmlns="http://www.w3.org/2000/svg" xmlns:xlink="http://www.w3.org/1999/xlink" x="0px" y="0px"
	 viewBox="0 0 491.98 197.49" style="enable-background:new 0 0 491.98 197.49;" xml:space="preserve">
<g>
	<path d="M460.27,138.89c0.32,0,0.62-0.01,0.91-0.03c0.29-0.02,0.54-0.08,0.76-0.18c0.22-0.09,0.4-0.24,0.53-0.45
		c0.13-0.2,0.2-0.48,0.2-0.85c0-0.31-0.06-0.55-0.18-0.73c-0.12-0.18-0.27-0.32-0.46-0.42c-0.19-0.1-0.41-0.17-0.65-0.2
		c-0.24-0.03-0.49-0.05-0.72-0.05h-1.88v2.91H460.27z M460.89,134.84c1.09,0,1.89,0.21,2.42,0.65c0.52,0.43,0.78,1.09,0.78,1.97
		c0,0.82-0.23,1.42-0.69,1.81c-0.46,0.38-1.03,0.61-1.71,0.68l2.61,4.04h-1.53l-2.49-3.93h-1.51v3.93h-1.42v-9.14H460.89z
		 M454.44,142.04c0.33,0.82,0.78,1.52,1.36,2.12c0.58,0.6,1.26,1.07,2.05,1.41c0.79,0.34,1.64,0.51,2.56,0.51
		c0.91,0,1.75-0.17,2.53-0.51c0.78-0.34,1.46-0.81,2.04-1.41c0.58-0.6,1.03-1.3,1.36-2.12c0.33-0.82,0.49-1.71,0.49-2.67
		c0-0.93-0.17-1.8-0.49-2.61c-0.33-0.81-0.78-1.51-1.36-2.1c-0.58-0.59-1.26-1.06-2.04-1.4c-0.78-0.34-1.62-0.51-2.53-0.51
		c-0.92,0-1.78,0.17-2.56,0.51c-0.79,0.34-1.47,0.81-2.05,1.4c-0.58,0.59-1.03,1.29-1.36,2.1c-0.33,0.8-0.49,1.68-0.49,2.61
		C453.95,140.33,454.12,141.22,454.44,142.04 M453.16,136.3c0.42-0.95,0.98-1.77,1.71-2.47c0.72-0.7,1.55-1.24,2.51-1.64
		c0.96-0.4,1.97-0.6,3.04-0.6s2.08,0.2,3.03,0.6c0.95,0.4,1.78,0.94,2.49,1.64c0.71,0.7,1.28,1.52,1.69,2.47
		c0.42,0.95,0.63,1.98,0.63,3.07c0,1.13-0.21,2.17-0.63,3.13c-0.42,0.96-0.98,1.78-1.69,2.49c-0.71,0.71-1.54,1.25-2.49,1.64
		c-0.95,0.39-1.96,0.59-3.03,0.59s-2.09-0.19-3.04-0.59c-0.95-0.39-1.79-0.94-2.51-1.64c-0.72-0.7-1.29-1.53-1.71-2.49
		c-0.42-0.96-0.63-2-0.63-3.13C452.53,138.28,452.74,137.25,453.16,136.3"/>
	<g>
		<path d="M241.24,130.31c-1.67,1.45-4.04,2.39-6.15,2.4c-2.67,0.01-4.95-1.47-4.96-5.33c-0.03-9.58,13.01-18.18,21.7-18.12
			C249.91,116.79,248.42,124.1,241.24,130.31 M405.01,131.3c-12.48-3.57-18.91-11.48-21.41-18.62c4.09-3.43,9.16-6.47,14.14-9.77
			c2.89-1.92,3.69-3.89,4.85-6.93c1.4-3.67,2.81-8.86,2.88-11.47c0.06-1.89-0.09-3.35-2.5-3.27c-2.32,0.08-10.38,5.3-12.35,6.64
			c-11.02,7.51-20.41,16.68-28.53,27.24c3.67-14.87,7.87-36.8,9.66-47.93c0.58-3.59,1.54-8.48-0.44-11.8
			c-1.53-2.55-5.83-7.56-9.21-9.48c-3.24-1.83-4.91,0.34-5.51,3.29c-2.17,10.72-3.39,16.62-5.17,25.39
			c-2.54,12.47-4.8,22.4-10.43,36.36c-3.17,7.86-10.32,21.74-18.37,21.77c-7.85,0.03-5.03-19.01-5.05-24.17
			c-0.01-1.83-0.3-6.29-4.63-7.26c-14.48-3.26-16.66-7.96-19.52-7.45c-1.78,0.32-2.82,1.95-3.55,4.36
			c-2.88,9.58-4.47,18.21-10.1,26.76c-2.62,3.97-7.46,8.68-11.17,8.69c-3.73,0.01-5-3.32-5-6.65c0-9.35,2.6-18.88,3.79-24.22
			c0.89-3.98-1.26-4.69-3.32-5.29c-2.64-0.77-5.93-0.88-7.14-0.88c-11.23,0.04-21.64,3.65-30.32,10.77
			c-3.63,2.98-6.54,6.62-9.53,10.21c-3.29,3.96-13.02,15.95-18.85,15.97c-4.05,0.01-4.5-4.56-4.51-7.69
			c-0.05-13.83,6.66-34.91,11.6-47.53c3.28-8.39,6.76-15.98,7.83-20.45c0.88-3.69-0.1-6.98-2.14-9.73
			c-2.73-3.68-5.75-6.26-8.48-7.52c-1.92-0.89-3.78-0.36-5.08,1.47c-2.14,3.02-4.94,9.16-6.05,11.57
			c-8.66,18.79-15.18,40.7-15.1,61.47c0.04,11.14,1.28,31.53,16.53,31.47c8.4-0.03,15.75-5.13,21.11-11.26
			c1.05,7.21,6.76,11.28,14.71,11.26c8.76-0.03,16.73-5.04,22.08-11.68c1.74,7.34,7.49,11.7,14.99,11.68
			c18.03-0.07,28.73-19.9,33.51-34.75c0.57,0.37,1.52,0.63,1.52,0.63c-0.14,1.71-0.25,4.32-0.25,6.38c0.02,11.67,2.8,27.8,18,27.75
			c12.97-0.05,21.31-12.07,27.28-22.01h0.36c-1.05,6.76-2.43,12.24-2.89,19.15c-0.2,2.97,4.02,2.7,5.9,2.7
			c9.26,0,8.88-2.2,11.35-10.1c1.63-5.18,5.52-9.04,9.39-12.64c1.96,4.16,6.3,11.22,12.72,16.61c3.95,3.32,9.5,6.18,14.34,6.17
			c2.1-0.01,3.14-0.28,4.74-1.52c3.34-2.59,5.96-8.12,6.26-10.1C408.22,133.01,406.65,131.77,405.01,131.3"/>
		<path d="M453.06,120.91c0.55,8.66-5.97,15.01-14.75,19.75c-9.22,4.98-19.85,7.62-27.79,6.93c-1.7-0.15-2.8-1.32-2.43-3.83
			c0.35-2.34,1.13-4.42,2-6.12c1.21-2.36,2.98-3.96,6.4-4.35c2.13-0.24,6.5-0.33,10.17-1.47c4.28-1.33,8.77-3.34,8.77-6.92
			c0-6.34-27.86-2.73-27.86-15.18c0-12.62,20.79-18.54,28.87-20.81c3.64-1.02,7.81-1.57,9.42-1.57c1.95,0,2.77,1.26,2.41,2.97
			c-0.81,3.78-2.53,8.4-6.72,9.45c-1.85,0.47-11.72,2.43-14.97,4.01c-1.01,0.49-1.58,1.19-1.57,1.89c0,0.88,1.07,1.4,2.84,1.86
			C435.02,109.36,452.39,110.29,453.06,120.91"/>
		<path d="M171.94,146.25c-2.81,0-5.46-0.34-8.24-0.7c-9.72-1.26-18.64-1.98-27.45-1.98c-17.98,0-32.02,1.72-47.92,4.13
			c-12.42,1.88-22.9,3.21-32.55,3.5c-13.63,0.42-27.89-2.32-27.89-18.94c0-19.49,21.58-43.51,41.92-59.79
			c19.69-15.76,41.34-26.93,55.34-32.57c9.34-3.77,20.76-7.19,27.88-7.19c6.86,0,5.79,6.06,0.75,14.71
			c-4.74,8.15-6.88,10.23-13.51,11.06c-11.52,1.45-28.04,2.85-59.43,26.84c-17.87,13.65-34.1,32.57-33.82,42.32
			c0.18,6.17,4.76,8.15,10.37,8.15c8.23,0,17.56-1.76,29.35-3.91c18.5-3.37,41.55-8.15,60.95-8.15c5.23,0,10.13,0.57,14.56,1.7
			c3.4,0.87,5.57,2.83,7.78,5.73c1.8,2.36,3.39,5.09,4.61,7.57c1.11,2.26,2.05,4.54,1.33,5.99
			C175.5,145.66,174.42,146.25,171.94,146.25"/>
	</g>
</g>
</svg>
