<svg id="logo-svg" xmlns="http://www.w3.org/2000/svg" viewBox="0 0 202.71 51.76"><path d="M33.86,32.78a12.89,12.89,0,0,1-3.15-9.13A12.49,12.49,0,0,1,35.84,13a11.92,11.92,0,0,1,7.07-2A10.4,10.4,0,0,1,49,12.81c2.73,1.77,4.48,5.59,4.48,10,0,3.59-1.16,7.42-3.62,9.83a11.27,11.27,0,0,1-8.36,3.16,10.68,10.68,0,0,1-7.61-3m11.4-1.6c1.23-1.75,1.65-4.41,1.65-7.53a16.55,16.55,0,0,0-1.49-7.36,3.38,3.38,0,0,0-3.12-2.15,4,4,0,0,0-3.22,1.58c-1,1.37-1.78,4-1.78,7.51,0,3.77.56,6.16,1.78,7.73a4,4,0,0,0,3.24,1.68,3.26,3.26,0,0,0,2.94-1.46"></path><path d="M75.45,14.52c-1,2.72-2.12,6.22-3.28,9.22-1.33,3.58-2.93,8.12-4.42,11.92-.38,0-2.27.05-4.91.05-1.37-3.85-3-8.36-4.11-12.2-.86-2.8-1.81-6-2.63-8.79,0-.11-.09-.14-.22-.16l-1.67-.06c0-1.06,0-2.15,0-3.08,1.27,0,3.22,0,4.75,0,2.06,0,4.58-.08,6.41-.08v3.17l-2.38.1c.3,1.63,1.13,5.24,1.43,6.5.66,2.51,1.26,5.22,2.1,8.16h.22c.7-2.3,1.22-4.2,1.72-5.85.55-2.11,1.94-6.78,2.26-8.59,0-.1,0-.22-.11-.22l-2,0c0-1,0-2.23,0-3.18h5.23c1.06,0,2.4-.08,3.44-.08v3.18Z"></path><path d="M83,32.07c.1,0,.18,0,.18-.16l-.08-17.37-2,0c0-1.06,0-2.22,0-3.16,1.31,0,3.14,0,4.61,0,1.1,0,7.41,0,8.18,0l3.47,0c.16,2.13.29,4.35.36,6.51l-3.4.39-.58-2.82a.72.72,0,0,0-.7-.59,18.83,18.83,0,0,0-3.68-.25,2.38,2.38,0,0,1-.38,0l0,7c1.09-.07,2.07-.07,3-.12.22,0,.43-.26.46-.69l.2-1.36c1.13-.06,2.32,0,3.3,0,0,1.17,0,2.51,0,3.85s0,2.68,0,3.64c-1.05,0-2.16.1-3.3.1l-.15-1.48c0-.55-.23-.78-.57-.76-1,0-2-.08-3-.08V31.2c0,.68.29.85,1.82.83a15,15,0,0,0,2.8-.25.91.91,0,0,0,.67-.71l1-2.94c1.17.17,2.38.42,3.45.62-.41,2.17-.8,4.33-1.28,6.55-1.8,0-6.64,0-11.49,0-1.62,0-3.39,0-4.83,0,0-1,.06-2.14.06-3.13Z"></path><path d="M102.25,14.39V11.28c2.43-.08,5.37-.15,8.1-.15a16.3,16.3,0,0,1,5.17.54,6.51,6.51,0,0,1,5,5.92,7,7,0,0,1-4.33,6.46v.18c1.55.77,2.38,2.83,4,6.35.36.86.64,1.2,1,1.28l1.68.2c0,1,0,2,0,3.07-.68,0-1.93,0-2.61,0s-3.78.07-4.42.07c-.89-1.65-2.6-5.92-3.27-7.64-.46-1.13-1.14-1.62-1.88-1.59a1.81,1.81,0,0,0-.85.1v6l1.88.1c0,1,0,2,0,3-1.38,0-3.24,0-5,0l-4.45,0v-3l1.75-.11c.05,0,.05-.1.05-.16V14.46Zm7.66,8.53a2.54,2.54,0,0,0,.83.06c2.38,0,3.81-1.74,3.8-4.16,0-2.7-1.62-4.68-3.49-4.68a4.14,4.14,0,0,0-1.14.11Z"></path><path d="M128.35,31.92a1.85,1.85,0,0,0,.14-.14l-.14-17.39-2-.08c0-1,0-2.15,0-3.11l6.76,0c2.65,4,7,11.08,10.09,16h.2c-.07-4.26-.07-8.58-.19-12.84l-2.48-.08c0-1,0-2.15,0-3.09,1.38,0,3,0,4.56,0,1.21,0,2.72-.05,3.77-.07,0,1,0,2.11-.05,3.17l-1.56.09c-.07,0-.11,0-.11.18l-.11,20.24a11.9,11.9,0,0,1-4.24.71c-2.3-2.91-6.28-8.25-10.35-14.57h-.26v11l2.56.11c0,1,0,2.15-.07,3.16h-5c-1.11,0-2.29,0-3.26,0V32Z"></path><path d="M152.93,31.86c.12,0,.18-.06.22-.16,2.09-6,5.15-14.76,7.28-20.76a41.18,41.18,0,0,1,4.82-.12c2,6.19,4.85,15,6.77,21l1.79.14c0,1-.06,2.07,0,3.09-1.19,0-2.94,0-4.18,0l-5.72,0c0-1.09.05-2.1.05-3.12l1.71-.14a.15.15,0,0,0,.13-.2c-.17-.52-.47-1.7-.71-2.29,0-.13-.15-.14-.2-.16l-6.51.09c-.14.82-.46,1.86-.59,2.62l1.89.1c0,1,0,2.09,0,3.1h-8.35c0-1.06,0-2.07,0-3.1Zm8.68-14.17c-.8,2.74-1.65,5.66-2.36,8.15-.05.2,0,.24.08.26l4.83,0c-.67-2.43-1.54-5.47-2.4-8.39Z"></path><path d="M181.1,31.73c.06,0,.1-.1.1-.15l-.06-17.22a15.1,15.1,0,0,0-2.41.18.67.67,0,0,0-.64.68l-.66,3.6c-1.24-.09-2.59-.19-3.72-.31.15-2.53.3-5,.42-7.51.75,0,2.13,0,3.32,0h6.85c1.14,0,5.64,0,6.61-.08h3.3c.15,2.43.29,4.92.35,7.46-1.09.09-2.49.21-3.68.36l-.64-3.52c0-.44-.2-.64-.65-.69a8,8,0,0,0-2.41-.22l-.11,17.36,2.54.1a27.93,27.93,0,0,1,0,3.17h-5.44c-1.68,0-3.74,0-5.5,0,0-1.07,0-2.08,0-3.15Z"></path><path d="M27,29.28c-1.07-1.55-2.6-3.58-3.62-5.09-.74.49-2.54,1.51-3.39,2.11l2.14,2.81s-.82,1.27-5.57,1a7.61,7.61,0,0,1-5.4-2.18C9.35,26,8.46,23,8.46,18.38s1.09-8.14,3.13-10.59A5.58,5.58,0,0,1,16,5.56a3.14,3.14,0,0,1,2.11.71c.18.08.26.36.32.57l1.08,5.64c1.62-.17,3.26-.48,4.82-.76-.16-3.62-.44-7.31-.75-11a17.21,17.21,0,0,0-6-.77A16.56,16.56,0,0,0,6.29,4.26C2.85,7.42,0,12.54,0,20.21c0,5.66,2.31,10.23,5.19,12.67A15.15,15.15,0,0,0,15,36c6.49-.52,10.08-3.54,12-6.74"></path><path d="M19.59,49l-.66,2.8-.84-.23,2.16-8.47h1l2.16,8.47-.85.23L21.92,49Zm1.18-4.76h0l-.95,4h1.91Z"></path><path d="M38.7,43.06v6.21c0,.84.16,1.63,1.22,1.63s1.24-.8,1.24-1.63V43.06H42v6.46a2,2,0,0,1-2.1,2.19,2,2,0,0,1-2.08-2.15v-6.5Z"></path><path d="M58.68,43.83H56.84v-.77h4.5v.77H59.53v7.76h-.85Z"></path><path d="M76.08,43.06h.86v3.58h2.63V43.06h.86v8.53h-.86V47.41H76.94v4.18h-.86Z"></path><path d="M95.59,43.06h4.16v.77h-3.3v2.81h2.72v.77H96.45v3.42h3.3v.76H95.59Z"></path><path d="M114.36,43.06h1.07L118,50.24l0,0,0-1.9V43.06h.86v8.53h-1.07l-2.54-7.18,0,0,0,1.93v5.23h-.86Z"></path><path d="M135.34,43.83H133.5v-.76H138v.76h-1.8v7.76h-.86Z"></path><path d="M154.48,43.83h-1.15v-.76h3.17v.76h-1.16v7h1.16v.76h-3.17v-.76h1.15Z"></path><path d="M176.47,50.32a2.62,2.62,0,0,1-2.21,1.39c-2.23,0-2.56-2.69-2.56-4.37S172,43,174.26,43a2.32,2.32,0,0,1,2.08,1.38l-.73.44a1.56,1.56,0,0,0-1.35-1c-1.56,0-1.66,2.45-1.66,3.58s.1,3.56,1.66,3.56a1.93,1.93,0,0,0,1.51-1.07Z"></path><path d="M198.39,35.46a4.33,4.33,0,1,1,4.32-4.33A4.32,4.32,0,0,1,198.39,35.46Zm0-8a3.72,3.72,0,1,0,3.72,3.72A3.72,3.72,0,0,0,198.39,27.41Z"></path><path d="M196.58,28.43h1.82c1.66,0,2,.88,2,1.43,0,1-.74,1.25-1.27,1.41l1.55,2.43h-1l-1.4-2.35h-.91V33.7h-.83Zm.81.61v1.75a9.19,9.19,0,0,0,1.34,0c.33-.08.84-.23.84-.81s-.46-.9-1.35-.9Z"></path></svg>