<svg xmlns="http://www.w3.org/2000/svg" xmlns:xlink="http://www.w3.org/1999/xlink" width="75.064" height="32.17" viewBox="0 0 75.064 32.17"><defs><clipPath id="clip-path"><rect id="사각형_83" data-name="사각형 83" width="75.064" height="32.17" fill="none"></rect></clipPath></defs><g id="그룹_3" data-name="그룹 3" transform="translate(0 0)"><path id="패스_1" data-name="패스 1" d="M13.318,0,6.9,4.822,8.317,6.856l6.978-4.125Z" transform="translate(-3.246 0)"></path><path id="패스_2" data-name="패스 2" d="M0,15.656V39.342H15.145V34.8H4.6V29.563H13.6V25.23H4.6V20.184H15.145V15.656Z" transform="translate(0 -7.368)"></path><g id="그룹_2" data-name="그룹 2" transform="translate(0 0)"><g id="그룹_1" data-name="그룹 1" clip-path="url(#clip-path)"><path id="패스_3" data-name="패스 3" d="M51.3,23.28H46.516s-.582-3.312-3.675-3.232a3.6,3.6,0,0,0-3.567,3.319s-.436,6.1.107,8.567a3.69,3.69,0,0,0,3.46,2.739s2.474.348,3.752-3.039H51.3s-.655,7.585-8.462,7.766c0,0-7.646-.075-8.275-8.172a63.854,63.854,0,0,1,.21-9.487,8.119,8.119,0,0,1,5.416-5.961s5.724-1.957,9.122,2.622A9.212,9.212,0,0,1,51.3,23.28" transform="translate(-16.226 -7.232)"></path><path id="패스_4" data-name="패스 4" d="M84.267,29.1a6.862,6.862,0,0,0,3.943-6.535A6.778,6.778,0,0,0,82.525,15.8a5.906,5.906,0,0,0-1.318-.127H71.859V39.341h4.6V29.79h3.106l4.473,9.551h5.406Zm-.5-6.368a2.721,2.721,0,0,1-2.1,2.642,6.992,6.992,0,0,1-.924.091h-4.28V20h3.984a6.969,6.969,0,0,1,1.233.053,2.356,2.356,0,0,1,2.089,2.677" transform="translate(-33.819 -7.377)"></path><path id="패스_5" data-name="패스 5" d="M110.227,15.674h4.607v15.1s-.227,3.93,3.746,4.064c3.975-.134,3.753-4.064,3.753-4.064v-15.1h4.6v15.46a8.217,8.217,0,0,1-5.848,8.059A8.43,8.43,0,0,1,110.827,34.5a9.551,9.551,0,0,1-.6-2.937Z" transform="translate(-51.876 -7.377)"></path></g></g></g></svg>