<svg width="658" height="272" viewBox="0 0 658 272" fill="none" xmlns="http://www.w3.org/2000/svg">
<path d="M192.1 252H2.75V7H189.3V59.15H62.95V101.5H184.75V153.65H62.95V199.85H192.1V252Z" stroke="black" stroke-width="4"/>
<path d="M458.5 129.5C458.5 161.933 448.817 189.933 429.45 213.5L451.15 236.25L418.6 268.45L394.1 242.2C376.367 252 356.417 256.9 334.25 256.9C298.083 256.9 268.333 244.65 245 220.15C221.667 195.417 210 165.2 210 129.5C210 93.5666 221.667 63.4667 245 39.2C268.333 14.4666 298.083 2.09998 334.25 2.09998C370.417 2.09998 400.167 14.4666 423.5 39.2C446.833 63.4667 458.5 93.5666 458.5 129.5ZM334.25 204.4C341.717 204.4 348.833 203.233 355.6 200.9L329.35 172.55L360.85 142.1L388.5 170.8C395.033 158.667 398.3 144.9 398.3 129.5C398.3 109.667 392.583 92.2833 381.15 77.35C369.95 62.1833 354.317 54.6 334.25 54.6C314.417 54.6 298.667 62.1833 287 77.35C275.8 92.5166 270.2 109.9 270.2 129.5C270.2 149.567 275.8 167.067 287 182C298.433 196.933 314.183 204.4 334.25 204.4Z" stroke="black" stroke-width="4"/>
<path d="M655.4 252H480.75V7H540.95V199.5H655.4V252Z" stroke="black" stroke-width="4"/>
</svg>
