<?xml version="1.0" encoding="utf-8"?>
<!-- Generator: Adobe Illustrator 26.5.0, SVG Export Plug-In . SVG Version: 6.00 Build 0)  -->
<svg version="1.1" id="레이어_1" xmlns="http://www.w3.org/2000/svg" xmlns:xlink="http://www.w3.org/1999/xlink" x="0px"
	 y="0px" viewBox="0 0 1244 535" style="enable-background:new 0 0 1244 535;" xml:space="preserve">
<style type="text/css">
	.st0{fill:#040000;}
</style>
<g>
	<path class="st0" d="M144.94,360.97c-11.3,0-22.06-2.02-32.28-6.04c-10.22-4.03-19.26-9.99-27.11-17.89
		c-7.85-7.89-14.04-17.65-18.57-29.29c-4.53-11.63-6.79-25.05-6.79-40.25c0-19.86,3.8-36.74,11.4-50.66
		c7.6-13.91,17.82-24.53,30.66-31.84c12.84-7.31,27.06-10.97,42.68-10.97c23.1,0,41.25,5.36,54.46,16.08
		c13.21,10.72,22.06,25.88,26.55,45.49l-34.65,4.99c-3.24-10.47-8.54-18.84-15.89-25.11c-7.35-6.27-16.76-9.45-28.23-9.53
		c-11.38-0.16-20.86,2.29-28.41,7.35c-7.56,5.07-13.23,12.26-17.01,21.56c-3.78,9.3-5.67,20.19-5.67,32.65s1.89,23.27,5.67,32.4
		c3.78,9.14,9.45,16.24,17.01,21.31c7.56,5.07,17.03,7.68,28.41,7.85c7.73,0.17,14.73-1.16,21-3.99
		c6.27-2.82,11.57-7.27,15.89-13.34c4.32-6.06,7.39-13.83,9.22-23.3h-28.41v-26.17h64.55c0.16,1.08,0.29,2.99,0.37,5.74
		c0.08,2.74,0.12,4.32,0.12,4.74c0,17.2-3.49,32.44-10.47,45.74c-6.98,13.29-16.83,23.7-29.54,31.22
		C177.21,357.21,162.22,360.97,144.94,360.97z"/>
	<path class="st0" d="M267.32,357.23V177.77h33.9v147.81h77.27v31.65H267.32z"/>
	<path class="st0" d="M481.67,360.97c-17.95,0-33.42-3.91-46.42-11.72c-13-7.81-23.01-18.73-30.03-32.78
		c-7.02-14.04-10.53-30.36-10.53-48.98s3.51-34.94,10.53-48.98c7.02-14.04,17.03-24.97,30.03-32.78c13-7.81,28.48-11.72,46.42-11.72
		s33.42,3.91,46.42,11.72c13,7.81,23.01,18.73,30.03,32.78c7.02,14.04,10.53,30.36,10.53,48.98s-3.51,34.94-10.53,48.98
		c-7.02,14.04-17.03,24.97-30.03,32.78C515.09,357.06,499.62,360.97,481.67,360.97z M481.67,329.07
		c11.38,0.17,20.85-2.29,28.42-7.35c7.56-5.07,13.23-12.25,17.01-21.56c3.78-9.3,5.67-20.19,5.67-32.65s-1.89-23.26-5.67-32.4
		c-3.78-9.14-9.45-16.24-17.01-21.31c-7.56-5.07-17.03-7.68-28.42-7.85c-11.38-0.16-20.86,2.29-28.41,7.35
		c-7.56,5.07-13.23,12.26-17.01,21.56c-3.78,9.3-5.67,20.19-5.67,32.65s1.89,23.27,5.67,32.4c3.78,9.14,9.45,16.24,17.01,21.31
		C460.82,326.28,470.29,328.9,481.67,329.07z"/>
	<path class="st0" d="M633.72,357.23l-52.59-179.46h35.64l33.65,123.38l33.65-123.13l35.64-0.25l33.65,123.38L787,177.77h35.64
		l-52.59,179.46h-33.4l-34.77-121.14l-34.77,121.14H633.72z"/>
	<path class="st0" d="M852.55,357.23V177.77h34.4l78.01,119.64V177.77h34.4v179.46h-34.4l-78.01-119.64v119.64H852.55z"/>
	<path class="st0" d="M1088.09,357.23V284.2l-61.31-106.43h39.63l38.88,67.55l38.88-67.55h39.63l-61.32,106.43v73.03H1088.09z"/>
</g>
</svg>
