<svg width="389" height="160" viewBox="0 0 389 160" fill="none" xmlns="http://www.w3.org/2000/svg"> <g> <path d="M114.26 150H0.650024V3H112.58V34.29H36.77V59.7H109.85V90.99H36.77V118.71H114.26V150Z"/> <path d="M271.5 76.5C271.5 95.96 265.69 112.76 254.07 126.9L267.09 140.55L247.56 159.87L232.86 144.12C222.22 150 210.25 152.94 196.95 152.94C175.25 152.94 157.4 145.59 143.4 130.89C129.4 116.05 122.4 97.92 122.4 76.5C122.4 54.94 129.4 36.88 143.4 22.32C157.4 7.48 175.25 0.0599976 196.95 0.0599976C218.65 0.0599976 236.5 7.48 250.5 22.32C264.5 36.88 271.5 54.94 271.5 76.5ZM196.95 121.44C201.43 121.44 205.7 120.74 209.76 119.34L194.01 102.33L212.91 84.06L229.5 101.28C233.42 94 235.38 85.74 235.38 76.5C235.38 64.6 231.95 54.17 225.09 45.21C218.37 36.11 208.99 31.56 196.95 31.56C185.05 31.56 175.6 36.11 168.6 45.21C161.88 54.31 158.52 64.74 158.52 76.5C158.52 88.54 161.88 99.04 168.6 108C175.46 116.96 184.91 121.44 196.95 121.44Z"/> <path d="M388.44 150H283.65V3H319.77V118.5H388.44V150Z"/> </g> </svg>
