<svg width="397" height="170" viewBox="0 0 397 170" fill="none" xmlns="http://www.w3.org/2000/svg">
<path d="M118.26 156H120.26V154V122.71V120.71H118.26H42.77V96.99H113.85H115.85V94.99V63.7V61.7H113.85H42.77V40.29H116.58H118.58V38.29V7V5H116.58H4.65002H2.65002V7V154V156H4.65002H118.26Z" stroke="black" stroke-width="4"/>
<path d="M272.497 145.972L273.893 144.591L272.537 143.17L260.727 130.787C271.918 116.557 277.5 99.7641 277.5 80.5C277.5 58.4649 270.328 39.8988 255.948 24.9407C241.545 9.67708 223.158 2.06 200.95 2.06C178.742 2.06 160.355 9.67708 145.952 24.9407C131.572 39.8988 124.4 58.4649 124.4 80.5C124.4 102.402 131.576 121.031 145.945 136.262L145.952 136.269C160.357 151.395 178.745 158.94 200.95 158.94C213.989 158.94 225.836 156.175 236.45 150.612L250.098 165.235L251.503 166.74L252.967 165.292L272.497 145.972ZM232.976 101.854L218.35 86.6724L216.96 85.2296L215.52 86.622L196.62 104.892L195.213 106.253L196.543 107.689L210.108 122.339C207.173 123.072 204.122 123.44 200.95 123.44C189.488 123.44 180.646 119.215 174.194 110.792C167.758 102.206 164.52 92.138 164.52 80.5C164.52 69.1564 167.75 59.1518 174.197 50.4138C180.802 41.837 189.651 37.56 200.95 37.56C212.403 37.56 221.166 41.8459 227.481 50.3981L227.491 50.4121L227.502 50.4258C234.08 59.017 237.38 69.0139 237.38 80.5C237.38 88.4029 235.902 95.5096 232.976 101.854Z" stroke="black" stroke-width="4"/>
<path d="M392.44 156H394.44V154V122.5V120.5H392.44H325.77V7V5H323.77H287.65H285.65V7V154V156H287.65H392.44Z" stroke="black" stroke-width="4"/>
</svg>
