<svg version="1.1" id="Livello_1" xmlns="http://www.w3.org/2000/svg" xmlns:xlink="http://www.w3.org/1999/xlink" x="0px" y="0px" width="1664px" height="402px" viewBox="0 0 1664 402" style="enable-background:new 0 0 1664 402;" xml:space="preserve">
<style type="text/css">
	.st0{fill:#1D1D1B;}
</style>
<g>
	<path class="st0" d="M991.9,244.2v9.6h65.5V295c0,58.9-44.9,85.7-86.6,85.7c-34.5,0-52.8-6-72.8-24
		c-29.8-26.7-44.3-77.2-44.3-154.3c0-78.1,12.2-181.8,117.6-181.8c82,0,104.4,64,110.5,102.1l0.2,1.1h8V20.1h-8.9h-0.6l-0.4,0.5
		c-4.7,6.1-8.8,10.1-21.8,10.1c-9.9,0-17.5-3.3-26.4-7.1c-13-5.6-29.2-12.6-60-12.6c-45.5,0-86,17.3-120.3,51.5
		c-9.7,9.7-24,25.1-36.1,47.5c-15.1,27.8-22.7,59-22.7,92.5c0,65.2,32.3,111,59.3,138c35.2,35,70.7,49.9,118.8,49.9
		c39.9,0,64-12.3,81.5-21.3c11-5.6,19.7-10.1,28.7-10.1c9.7,0,12.5,1.9,19.4,9.2l0.4,0.4h7.9V253.8h40.6v-9.6H991.9z"></path>
</g>
<polygon class="st0" points="1171.1,20.8 1171.1,30.4 1227.5,30.4 1227.5,373.8 1171.1,373.8 1171.1,383.4 1337.3,383.4 
	1337.3,373.8 1280.9,373.8 1280.9,30.4 1337.3,30.4 1337.3,20.8 "></polygon>
<g>
	<path class="st0" d="M1569.6,177.3c-1.5-0.5-3-0.9-4.3-1.4l-61.5-19.2c-36.6-11.6-72.3-26.4-72.3-68.1c0-53.7,51.9-68,82.6-68
		c49.6,0,85.1,34.6,94.8,92.5l0.2,1.1h8.4V20.1h-9.1l-0.4,0.7c-4.9,9.2-5.9,9.9-14.1,9.9c-7.2,0-13.6-2.9-21.7-6.5
		c-12.9-5.9-29-13.2-58.1-13.2c-31.9,0-60.7,10.8-81.1,30.5c-20.3,19.5-31.4,46.9-31.4,77c0,44.7,26,72.5,84.2,90.2l58.4,17.7
		c44.6,13.5,67.2,38.2,67.2,73.6c0,13.5-4.3,80.7-88.6,80.7h-1c-36.7,0-98.1,0-121.2-108.2l-0.2-1h-7.9v111.3h9.8l0.3-0.8
		c2.5-6.4,4.7-10.3,14-10.3c8.6,0,20.8,4.1,31.5,7.7c3.6,1.2,7.1,2.4,10.3,3.4c23.7,6.1,36.3,7.6,64.4,7.6
		c38.3,0,71.4-12.6,95.5-36.5c22.4-22.2,34.8-52.1,34.8-84.1C1653.1,203.2,1596.7,185.7,1569.6,177.3"></path>
</g>
<path class="st0" d="M589.5,83.8l61.6,160.4H529L589.5,83.8z M804.2,373.8h-45.6L620.4,11.7h-13.9L469.3,373.8h-94.4V30.4h56.4v-9.6
	H316.8l-93.6,271l-93.6-271H13.1v9.6h56.4v343.4H13.1v9.6h123v-9.6H79.7V40.3l120.7,346.2L321.5,36.8v337h-56.4v9.6H536v-9.6h-55.8
	l45.2-120.1h129.5L701,373.8h-55.8v9.6h159V373.8z"></path>
</svg>