<svg version="1.1" id="레이어_1" xmlns="http://www.w3.org/2000/svg" xmlns:xlink="http://www.w3.org/1999/xlink" x="0px" y="0px" viewBox="0 0 445.67 53.32" style="enable-background:new 0 0 445.67 53.32;" xml:space="preserve"><g><path class="st0" d="M84.67,22.14L47.53,1.89c-2.18-1.19-4.78-1.19-6.96,0L3.44,22.14C1.91,22.97,1,24.54,1,26.34
		c0,1.8,0.91,3.38,2.44,4.21L40.58,50.8c1.07,0.58,2.27,0.89,3.48,0.89c1.21,0,2.41-0.31,3.48-0.89l37.14-20.25
		c1.53-0.83,2.44-2.4,2.44-4.21C87.11,24.54,86.2,22.97,84.67,22.14z M44.06,40.93c-16.59,0-29.95-7.98-29.95-14.59
		c0-6.61,13.36-14.59,29.95-14.59c16.59,0,29.95,7.98,29.95,14.59C74.01,32.95,60.65,40.93,44.06,40.93z"></path><polygon class="st0" points="143.18,33.42 127.47,4.78 108.69,4.78 108.69,47.91 121.36,47.91 120.97,18.69 137.75,47.91 
		148.22,47.91 165.31,18.69 164.67,47.91 177.47,47.91 177.47,4.78 158.82,4.78 	"></polygon><path class="st0" d="M229.8,21.66c-2.2-0.13-8.02-0.32-9.18-0.32h-13.24c-4.27-0.06-4.53-0.13-5.3-0.32
		c-1.88-0.45-2.78-1.62-2.78-3.43c0-2.46,1.16-3.36,4.65-3.62c2.07-0.13,8.71-0.26,12.92-0.26c8.47,0,9.76,0.52,9.76,4.27h13.82
		c0-6.47-0.97-9.12-3.94-11.12c-3.1-2-7.62-2.39-22.74-2.39c-9.44,0-15.5,0.32-18.99,1.23c-6.21,1.49-9.42,4.78-9.42,12.54
		c0,5.88,1.42,9.31,4.53,10.93c2.78,1.42,7.1,1.87,15.05,1.87h12.92c6.79,0.06,6.79,0.06,8.21,0.52c1.36,0.45,2.2,1.75,2.2,3.49
		c0,3.56-2.83,4.01-18.02,4.01c-4.14,0-7.82-0.26-8.79-0.65c-1.55-0.58-1.88-1.29-2-4.27h-13.89c-0.06,0.91-0.06,1.75-0.06,2.13
		c0,5.11,1.36,8.4,4.01,9.7c3.81,1.94,8.13,2.26,23.07,2.26c9.37,0,16.79-0.39,20.03-1.1c6.34-1.36,9.68-4.85,9.68-12.8
		C242.27,25.67,238.02,22.04,229.8,21.66z"></path><path class="st0" d="M288.2,36.91c-1.81,0.78-4.25,0.84-14.02,0.84c-12.61,0-13.58-0.78-13.58-11.12c0-6.98,0.32-8.73,1.88-10.15
		c1.62-1.42,3.56-1.68,14.29-1.68c11.38,0,13.37,0.39,13.63,5.11h14.58v-1.42c0-6.34-1.62-10.15-5.11-11.9
		c-3.69-1.81-10.24-2.13-26.34-2.13c-12.09,0-16.23,0.58-20.11,2.84c-4.53,2.59-5.82,6.66-5.82,18.04c0,12.8,1.23,17.33,5.5,20.04
		c3.49,2.26,7.5,2.84,19.91,2.84c8.6,0,14.79-0.06,17.44-0.32c6.72-0.45,12.26-2.2,13.94-5.88c0.91-1.94,1.1-4.07,1.16-10.34h-14.78
		C290.79,34.78,290.08,36.14,288.2,36.91z"></path><polygon class="st0" points="423.31,23.14 389.22,23.14 389.22,14.55 424.99,14.55 424.99,4.78 376.16,4.78 376.16,47.91 
		389.22,47.91 389.22,32.91 423.31,32.91 	"></polygon><polygon class="st0" points="355.93,20.75 325.04,20.75 325.04,4.78 311.92,4.78 311.92,47.91 325.04,47.91 325.04,31.42 
		355.93,31.42 355.93,47.91 369.06,47.91 369.06,4.78 355.93,4.78 	"></polygon><path class="st0" d="M444.46,40.16c-0.62-5.59-5.29-9.8-10.88-9.8c-0.42,0-0.83,0.02-1.25,0.08c-6.01,0.69-10.36,6.12-9.69,12.13
		c0.63,5.56,5.3,9.75,10.88,9.75c0.4,0,0.81-0.02,1.22-0.07c2.93-0.32,5.54-1.76,7.38-4.04C443.96,45.93,444.78,43.06,444.46,40.16z
		 M440.44,46.87c-1.48,1.84-3.58,3-5.94,3.25c-0.33,0.04-0.66,0.06-0.99,0.06c-4.48,0-8.23-3.38-8.75-7.85
		c-0.53-4.83,2.97-9.21,7.82-9.76c0.32-0.04,0.66-0.05,1-0.05c4.49,0,8.25,3.38,8.74,7.88C442.59,42.73,441.92,45.03,440.44,46.87z"></path><path class="st0" d="M438.29,38.98c0-1.06-0.35-1.93-1.04-2.6c-0.71-0.67-1.78-0.99-3.21-0.99h-5.22v11.93h2.59v-4.68h2.43
		l1.76,4.68h2.78l-2.05-5.16C437.62,41.54,438.29,40.47,438.29,38.98z M435.34,40.25c-0.36,0.32-0.92,0.47-1.64,0.47h-2.56v-3.43
		h2.71c0.65,0,1.14,0.15,1.5,0.46c0.36,0.31,0.53,0.71,0.53,1.22C435.88,39.51,435.71,39.93,435.34,40.25z"></path></g></svg>