<svg xmlns="http://www.w3.org/2000/svg" xmlns:xlink="http://www.w3.org/1999/xlink" width="1850" height="302.124" viewBox="0 0 1850 302.124">
  <defs>
    <clipPath id="clip-path">
      <path id="패스_249" data-name="패스 249" d="M0,74.962H1850V-227.162H0Z" transform="translate(0 227.162)" fill="none"/>
    </clipPath>
  </defs>
  <g id="LOGO_-_FOOTER" data-name="LOGO - FOOTER" transform="translate(0 227.162)" style="isolation: isolate">
    <g id="그룹_999" data-name="그룹 999" transform="translate(0 -227.162)" clip-path="url(#clip-path)">
      <g id="그룹_994" data-name="그룹 994" transform="translate(610.458 0)">
        <path id="패스_244" data-name="패스 244" d="M67.335,21.052A141.022,141.022,0,0,0,54.865-4.286,129.327,129.327,0,0,0,37.623-26.223,121.694,121.694,0,0,0-2.925-53.586c-16.339-6.767-34.451-10.2-53.845-10.2-.775,0-1.561.008-2.341.019H-59.3c-.972-.021-1.96-.029-2.93-.029a139.925,139.925,0,0,0-55.328,11.059A135.11,135.11,0,0,0-161.037-22.93,144.857,144.857,0,0,0-179.451.175,152.769,152.769,0,0,0-193.044,26.78a158.251,158.251,0,0,0-8.339,29.213,161.631,161.631,0,0,0-2.657,30.92v.061c0,22.421,3.559,43.294,10.573,62.031A135.024,135.024,0,0,0-163.734,196.4a131.1,131.1,0,0,0,46.309,30.462c18.342,7.2,38.792,10.854,60.786,10.854a192.366,192.366,0,0,0,42.005-4.479,164.346,164.346,0,0,0,36.1-12.576,163.8,163.8,0,0,0,52.422-40.8l-35.52-36.5a131.9,131.9,0,0,1-15.024,16.5A109.311,109.311,0,0,1,1.266,175.677a103.713,103.713,0,0,1-24.915,9.488,117.946,117.946,0,0,1-27.46,3.135,121.755,121.755,0,0,1-35.757-5.082,92.424,92.424,0,0,1-29.691-15.181,83.406,83.406,0,0,1-21.534-24.947,97.844,97.844,0,0,1-11.338-33.824l-.192-2.385H75.9c1.326-23.168.579-48.367-1.071-57.981a153.924,153.924,0,0,0-7.5-27.849m-215.543,41.28,1.878-8.371A103.51,103.51,0,0,1-134.14,25.135,83.983,83.983,0,0,1-114.825,3.478a82.136,82.136,0,0,1,25.4-13.5A97.627,97.627,0,0,1-59.19-14.612,92.118,92.118,0,0,1-27.125-9.157a74.541,74.541,0,0,1,24.76,15,71.238,71.238,0,0,1,16.3,22.239C17.862,36.441,21.4,45.5,22.082,55l.446,7.33Z" transform="translate(204.05 63.794)"/>
      </g>
      <g id="그룹_995" data-name="그룹 995" transform="translate(0.001 0.601)">
        <path id="패스_245" data-name="패스 245" d="M64.96,10.829a141.171,141.171,0,0,0-22.1-18.385A145.016,145.016,0,0,0,17.176-21.268a156.36,156.36,0,0,0-59.8-11.547c-.819,0-1.652.007-2.474.021h-.166c-.837-.015-1.648-.021-2.484-.021A157.536,157.536,0,0,0-107.995-21.2,145.947,145.947,0,0,0-133.814-7.42,141.4,141.4,0,0,0-156,11.023,140.253,140.253,0,0,0-186.339,58a155.625,155.625,0,0,0-10.5,59.443v.162a157.864,157.864,0,0,0,10.555,60.085,140.715,140.715,0,0,0,30.491,47.285,141.042,141.042,0,0,0,22.156,18.42,145.449,145.449,0,0,0,25.775,13.741,157.443,157.443,0,0,0,60.118,11.575c.819,0,1.652-.011,2.478-.021h.166c.818.011,1.648.021,2.463.021a156.478,156.478,0,0,0,59.945-11.594,145.133,145.133,0,0,0,25.73-13.74,141.509,141.509,0,0,0,22.127-18.41,140.3,140.3,0,0,0,30.365-47,155.612,155.612,0,0,0,10.516-59.508v-.161A157.763,157.763,0,0,0,95.473,58.147,140.746,140.746,0,0,0,64.96,10.829M44.888,157.082a96.049,96.049,0,0,1-19.226,32.306,88.489,88.489,0,0,1-30.71,21.9A101.9,101.9,0,0,1-45.6,219.272a98.452,98.452,0,0,1-39.622-7.992,90.375,90.375,0,0,1-30.62-21.872c-17.053-18.568-26.444-43.95-26.444-71.463s9.391-52.893,26.444-71.461a90.455,90.455,0,0,1,30.62-21.872A98.519,98.519,0,0,1-45.6,16.622,101.9,101.9,0,0,1-5.048,24.606a88.455,88.455,0,0,1,30.71,21.9,96.057,96.057,0,0,1,19.226,32.3A115.13,115.13,0,0,1,51.5,117.945a115.135,115.135,0,0,1-6.615,39.136" transform="translate(196.854 32.815)"/>
      </g>
      <g id="그룹_996" data-name="그룹 996" transform="translate(333.463 7.051)">
        <path id="패스_246" data-name="패스 246" d="M55.939,6.705C36.021-10.975,7.266-20.32-27.218-20.32h-142.3V268.3h53.269V175.679h89.027c34.384,0,63.131-9.464,83.135-27.382,19.516-17.469,29.826-41.819,29.826-71.115,0-29.414-10.307-53.169-29.805-70.476m-42.552,108.2c-5.933,4.138-13.418,7.255-22.249,9.27a137.807,137.807,0,0,1-30.259,2.949h-77.124V28.239h77.124c23.578,0,40.746,3.919,52.476,11.982,12.12,8.328,18.269,20.137,18.269,36.961,0,16.84-6.138,29.288-18.237,37.724" transform="translate(169.514 20.32)"/>
      </g>
      <g id="그룹_997" data-name="그룹 997" transform="translate(931.984 0.623)">
        <path id="패스_247" data-name="패스 247" d="M49.917,2.143C35.723-3.589,19.347-6.494,1.238-6.494c-9.281,0-20.091,1.092-33.056,3.346C-41.2-1.517-56.555,3.385-81.787,17.665L-101.05,31.818V-.066h-50.217V288.557h53.273V124.526c0-21.753,7.819-41.838,22.019-56.562a75.385,75.385,0,0,1,25.636-17.4,86.62,86.62,0,0,1,33.294-6.357c12.149,0,22.992,1.563,32.232,4.632A60.671,60.671,0,0,1,39.2,63.281,60.682,60.682,0,0,1,53.7,87.35c3.106,9.3,4.675,20.217,4.675,32.461V288.557h53.269V107.8c0-33.759-9.52-62.125-27.535-82.033A92.154,92.154,0,0,0,49.917,2.143" transform="translate(151.267 6.494)"/>
      </g>
      <g id="그룹_998" data-name="그룹 998" transform="translate(1303.086 6.491)">
        <path id="패스_248" data-name="패스 248" d="M121.909,0,36.887,146.953H31.168L-56.269,0h-75.175l-84.589,146.888h-7.311L-310.624,0h-58.8l124.386,197.58v91.508h3.147v.053h47.511v-.053h2.708v-89.62L-95,32.457,8.767,196.289c-11.107,20.54-30.261,46.349-56.442,46.349H-71.6v46.5H-41c42.743,0,63.01-24.657,84.461-56.843C49.239,223.635,177.486,0,177.486,0Z" transform="translate(369.427 0.001)"/>
      </g>
    </g>
  </g>
</svg>
