<?xml version="1.0" encoding="utf-8"?>
<!-- Generator: Adobe Illustrator 26.0.3, SVG Export Plug-In . SVG Version: 6.00 Build 0)  -->
<svg version="1.1" id="Calque_1" xmlns="http://www.w3.org/2000/svg" xmlns:xlink="http://www.w3.org/1999/xlink" x="0px" y="0px"
	 viewBox="0 0 297.3 88" style="enable-background:new 0 0 297.3 88;" xml:space="preserve">
<g>
	<g>
		<path d="M57.5,53.2C55.2,52,25.1,37.6,24.6,37.3s-0.7-1.1-0.1-1.3c0.6-0.3,15.3-5,17.9-5.8c2.6-0.9,9.1-3.9,9.1-8.7
			c0-4.3-2.2-6.7-5.7-8.7c-3.6-1.9-9.6-3-12.8-3.3S24.4,9,16.7,9.1C9,9.3,4.3,9.3,2.7,9.7c-1.7,0.4-3,0.6-2.6,4.4
			c0.5,3.8,5.3,3.6,7.3,3.7c2,0,6.7-0.1,6.7-0.1v11.2c0,0-7.6,1.1-8.4,1.7C5,31.3,3.9,33.7,5,36.5s8.8,5.6,8.8,5.6s0,8,0,8.6
			s0.4,4.2,1.1,5.3c0.7,1.1,2,3,4.8,2.9s4.2-1.5,4-6.2c-0.1-4.7,0-6.6,0-6.6s24.5,13.1,27.1,14.5c2.6,1.4,5.2,2.8,7.2,2.1
			c1.8-0.7,2.3-1.7,2.6-3.8C61,56.8,59.8,54.3,57.5,53.2 M24.2,17.4c0,0,4.2,0,6.8,0.2c2.7,0.2,7.6,1.4,8.2,2.1
			c0.6,0.7-1.1,1.6-2.4,2.3c-1.2,0.8-12.6,4.3-12.6,4.3L24.2,17.4z"/>
		<path d="M116.9,59.4c-1.5-1-9.7-1.3-12.9-1.7c-3.2-0.4-15.9-2.8-17.9-3.4c-2-0.6-2.9-1.6-3.4-3.2c-0.5-1.6,0.1-7.2,0.4-8.4
			s1.5-2,2.4-2.3c1-0.3,5.4,0.1,9.5-0.6c4.2-0.6,4.5-2.1,4.4-3.9c-0.1-1.7-0.1-6.4-6.4-5.4c-6.3,0.9-7.3,2.9-8.3,2.8s-1.9-1-1.7-3.9
			c0.2-2.9-0.1-5.8,0.7-6.1c0.9-0.3,7.8-1.8,10-2.1c2.2-0.3,13.6-0.4,15.3-1.3c1.7-1,1.8-3,1.1-5.6c-0.7-2.6-4-3.1-6-2.9
			c-2,0.2-5.8,1.5-8,1.8s-17.6,1.9-22,2.9s-6.6,2.8-6.5,5.3c0,0.7,0.5,1.4,0.6,1.6c0.7,1.2,2.4,1.1,3.7,1.3c1.3,0.2,2.6,0.3,2.8,1
			c0.2,0.7-1,23.6-1.1,24S73.5,50,71.4,50c-2.1,0.1-4.7-0.4-5.1,3.2c-0.5,3.7,1.6,4.8,4.5,5.9c2.9,1.2,32.1,7.5,39,8.4
			c7,0.9,7.5-0.9,8.3-2.2C119.1,64.2,118.3,60.4,116.9,59.4"/>
		<path d="M154.3,17.7c-7.3-0.9-15.4,2.1-17.8,3.5c-2.4,1.5-2.1,3.8-2,5.9s8.7,26.7,8.6,27.5c-0.1,0.8-2.1,0.6-5.3-0.6
			c-3.1-1.2-8-6.3-9.9-12.5c-1.8-6.2-1.5-12.1,0.2-17.1c1.7-5.1,5.2-8.4,6.4-10.8s1.2-5.1,0.5-6.9c-0.7-1.7-4-2-6.2-0.9
			c-2.1,1-5.9,6.8-5.9,6.8c-0.8,1.4-4.3,8.2-5.3,12.4s-1,5.7-0.3,12.7c0.8,8.1,4.9,16.2,10.4,21.1s17.6,5,18.3,5.2s3.4,12,5.9,18.8
			s4.5,5.3,8,4.7c3.4-0.6,3.9-3.5,3.7-5s-6.7-20.4-6.7-20.7s0.7-0.7,3.1-1.8c2.3-1.2,6.5-5.6,9.3-9.9c2.6-4,2.9-16.4-0.4-23.4
			C165.6,19.5,161.6,18.6,154.3,17.7 M158.9,47.2c-2.4,3.6-4.5,5-5,5s-4.2-10.6-5.2-13.9c-1-3.3-3.1-9.2-1.3-10.8
			c1.7-1.6,4.5-2.2,6.8-1.1s5.7,5.8,6.5,9.8S161.3,43.6,158.9,47.2"/>
		<path d="M186.7,8.5c-2.6-0.4-4.8,0-6.4,1.5c-1.6,1.5-1.3,2.3-1.2,5.3c0.1,3.1,3.8,4,6.5,4c2.7,0.1,4.2-1,5-2
			c0.7-0.9,0.7-3.9,0.4-5.4S189.4,8.9,186.7,8.5"/>
		<path d="M185,22.5c-1.9-0.7-4.1-0.4-5.4,0.6c-0.7,0.5-0.6,1.2-0.7,2.4c-0.1,1.2-1.3,29.1-1.5,32.6c-0.1,3.5,0.6,3.9,1.4,4.6
			c0.8,0.7,4.5,0.5,5.4,0.1s1.9-1.8,2-2.9c0.1-1.1,1.6-29.7,1.5-32.5C187.7,24.6,186.9,23.2,185,22.5"/>
		<path d="M253.1,1.4c-1.4-1.3-3-1.5-4.2-1.4s-2.7,0.8-3.4,2.2s-2.3,12.5-2.9,16c-0.7,3.5-2.5,14.4-3.2,19.2s-0.7,7.9-1,8.1
			c-0.8,0.6-4.7-10.5-6.4-14.3c-1.5-3.3-3.9-10-6.4-12.4c-2.4-2.3-4.4-1.8-5.5-1.4s-5.6,6.6-7.3,9.5c-1.7,3-8.4,13.2-10.2,16.1
			c-1.8,2.9-7.2,10.2-7.9,10.9s-0.8,0.8-1.1,1.5c-0.4,1-1.5,3.1,0.9,5.6c2.4,2.6,4.5,2.9,7.5,0.2c2.9-2.7,11.1-18.4,13.3-21.6
			c2.2-3.2,6.3-8.3,6.3-8.3s6.8,17.8,9.5,22.9c2.4,4.5,2.3,8.2,7.8,8.3c5.6,0.1,6.9-2.6,7.4-9.4s3.4-23.5,3.9-26.5
			c0.4-3,2.9-13.5,3.2-17C253.6,6.3,254.5,2.7,253.1,1.4"/>
		<path d="M285.7,33.6c-4.8-2.4-13.1-3-15-4.8c-1.8-1.8-0.5-4.6,1.2-8.4c1.7-3.7,6.5-7.7,7.3-8c1.2-0.5,1.1-0.1,1.4,0.3
			c0.4,0.5-0.3,4.5-1.3,9.4s1.6,6.2,2.7,6.6s2.9,0.2,4-0.4s2.7-6,3-9.5c0.4-5,1.1-11.5-0.5-14.7c-1.7-3.2-7-2.9-12.7-0.4
			c-5.7,2.6-9.6,8.3-11.3,10.5c-1.2,1.5-1.4,2-2.4,3.9c-1.5,2.8-2,6.6-1.6,9.1c0.6,3.7,2.7,7.6,5.9,9.4c3.5,2,14.9,4.8,17.1,5.9
			c2.1,1,4.2,2.8,2.9,5.8c-0.5,1.2-3.3,4.7-7.8,6.5s-10.7,3-13,2.6c-2.4-0.4-3.4-1.2-3.6-3.2c-0.2-2.4,1.1-3.4,2.8-3.6
			c1.5-0.2,4.4,0.2,6.7-1.6c2.3-1.8,0.9-7-0.7-8.9c-1.7-1.8-6-0.6-9.9,0.6c-3.9,1.2-5.7,3-7,6.3c-1.6,3.9-1.6,6.7-0.4,10.3
			c1.1,3.6,3.4,5.9,8.9,7c5.5,1.2,9.8,1,19.2-1.5c9.4-2.5,12.3-5.9,13.8-7.9s2.4-5.8,1.5-10.6C295.7,39.5,290.8,36,285.7,33.6"/>
		<polygon points="182.5,73.7 182.5,82.9 181.3,82.9 181.3,75.4 179.9,76 179.9,74.8 		"/>
		<path d="M199.1,76.7c0,1,0.8,1.8,1.7,1.8s1.7-0.8,1.7-1.8s-0.8-1.8-1.7-1.8C199.9,74.9,199.1,75.7,199.1,76.7 M200.9,73.8
			c1.6,0,3,1.3,3,3c0,1.8-1.2,3.1-3.6,6.1h-1.5l2.6-3.3c-0.2,0.1-0.4,0.1-0.7,0.1c-1.4,0-2.8-1.2-2.8-3
			C197.9,75.1,199.2,73.8,200.9,73.8"/>
		<path d="M219.2,76.2c0,0.7,0.6,1.3,1.4,1.3c0.8,0,1.4-0.6,1.4-1.3c0-0.7-0.6-1.3-1.4-1.3C219.8,74.9,219.2,75.5,219.2,76.2
			 M222.5,80.2c0-0.9-0.8-1.7-1.8-1.7c-1.1,0-1.8,0.8-1.8,1.7c0,0.9,0.8,1.6,1.8,1.6C221.6,81.9,222.5,81.1,222.5,80.2 M223.7,80.2
			c0,1.6-1.3,2.8-3.1,2.8s-3.1-1.3-3.1-2.8c0-0.9,0.5-1.7,1.2-2.2c-0.5-0.4-0.8-1-0.8-1.7c0-1.4,1.1-2.5,2.7-2.5
			c1.5,0,2.7,1.1,2.7,2.5c0,0.7-0.3,1.3-0.9,1.8C223.2,78.4,223.7,79.2,223.7,80.2"/>
		<polygon points="243.4,73.9 239.9,82.9 238.5,82.9 241.7,75 237.4,75 237.4,73.9 		"/>
		<path d="M43.6,73.9h-1.8v9h1.8c2.9,0,4.6-2,4.6-4.5C48.2,75.9,46.6,73.9,43.6,73.9 M43.8,81.8h-0.7V75h0.7c1.8,0,3.2,1.5,3.2,3.4
			C47,80.2,45.6,81.8,43.8,81.8"/>
		<polygon points="62,75 62,77.8 64.2,77.8 64.2,79 62,79 62,81.8 65.1,81.8 65.1,82.9 60.8,82.9 60.8,73.9 65.1,73.9 65.1,75 		"/>
		<path d="M81.6,76.8c0-1.3-1-1.8-1.9-1.8h-0.6v3.7h0.6C80.7,78.7,81.6,78,81.6,76.8 M82.8,76.8c0,1.6-1.2,3-3.1,3h-0.6v3.1h-1.2v-9
			h1.6C81.8,73.9,82.8,75.2,82.8,76.8"/>
		<path d="M101.7,73.9v5.4c0,2.3-1.2,3.7-3.1,3.7s-3.1-1.4-3.1-3.7v-5.4h1.2v5.6c0,1.4,0.7,2.4,1.8,2.4c1.2,0,1.8-1,1.8-2.4v-5.6
			H101.7z"/>
		<rect x="114.7" y="73.9" width="1.2" height="9"/>
		<path d="M134.4,80.2c0,1.4-1,2.8-2.8,2.8c-1.7,0-2.6-1.3-2.9-1.7l0.7-0.9c0.5,0.8,1.2,1.6,2.2,1.6c0.9,0,1.6-0.8,1.6-1.6
			c0-0.9-0.8-1.4-1.6-1.8c-1.8-0.8-2.3-1.5-2.3-2.7c0-1.1,1.1-2,2.4-2c1,0,1.5,0.3,2.1,0.9l-0.7,0.9c-0.4-0.5-0.9-0.7-1.4-0.7
			c-0.6,0-1.1,0.4-1.1,0.9c0,0.6,0.4,1,1.2,1.4C133.2,77.8,134.4,78.6,134.4,80.2"/>
	</g>
</g>
</svg>
