<?xml version="1.0" encoding="utf-8"?>
<!-- Generator: Adobe Illustrator 27.1.1, SVG Export Plug-In . SVG Version: 6.00 Build 0)  -->
<svg version="1.1" id="Layer_1" xmlns="http://www.w3.org/2000/svg" xmlns:xlink="http://www.w3.org/1999/xlink" x="0px" y="0px"
	 viewBox="0 0 86.3 12.5" style="enable-background:new 0 0 86.3 12.5;" xml:space="preserve">
<g>
	<g>
		<path d="M14.5,2.6l-1.5,4.8l-1.3-4.8h-1.4L9.3,6.7C9.2,7,9.1,7.3,9.1,7.5L8.9,6.6L7.7,2.6H6.2l2.2,7.2h1.5L11.1,5l0.1,0.5l1.1,4.2
			h1.4L16,2.6H14.5z"/>
		<rect x="23.8" y="0" width="1.5" height="9.7"/>
		<rect x="26.7" y="0" width="1.5" height="9.7"/>
		<path d="M32.6,2.4c-0.9,0-1.6,0.3-2.2,0.8c-0.7,0.6-1.1,1.6-1.1,2.9c0,1.2,0.3,2.1,0.9,2.8c0.6,0.6,1.4,1,2.4,1
			c0.6,0,1.2-0.1,1.7-0.4c0.5-0.3,0.9-0.7,1.2-1.2C35.8,7.7,36,7,36,6.1c0-1.1-0.3-2-0.9-2.7C34.4,2.8,33.6,2.4,32.6,2.4z M31.3,4.3
			c0.4-0.4,0.8-0.6,1.3-0.6c0.5,0,0.9,0.2,1.3,0.6c0.4,0.4,0.5,1,0.5,1.8c0,0.9-0.2,1.5-0.5,1.9c-0.3,0.4-0.8,0.6-1.3,0.6
			c-0.5,0-1-0.2-1.3-0.6c-0.4-0.4-0.5-1-0.5-1.9C30.8,5.3,31,4.7,31.3,4.3z"/>
		<path d="M44.5,2.6L43,7.4l-1.3-4.8h-1.4l-1.1,4.1C39.2,7,39.1,7.3,39,7.5l-0.2-0.9l-1.1-4.1h-1.5l2.2,7.2h1.5L41,5l0.1,0.5
			l1.1,4.2h1.4L46,2.6H44.5z"/>
		<path d="M21,3c-0.5-0.4-1.1-0.7-1.9-0.7c-0.7,0-1.3,0.2-1.8,0.5c-0.5,0.3-0.9,0.8-1.2,1.4c-0.3,0.6-0.4,1.2-0.4,1.9
			c0,1,0.3,1.9,0.9,2.6c0.6,0.7,1.4,1.1,2.5,1.1c0.7,0,1.3-0.2,1.9-0.7v0.5h1.6V2.5H21V3z M20.6,4.3c0.4,0.4,0.6,1,0.6,1.8
			c0,0.8-0.2,1.5-0.5,1.9c-0.4,0.4-0.8,0.6-1.3,0.6c-0.5,0-1-0.2-1.3-0.6c-0.4-0.4-0.5-1-0.5-1.9c0-0.8,0.2-1.4,0.5-1.8
			c0.4-0.4,0.8-0.6,1.3-0.6C19.8,3.7,20.2,3.9,20.6,4.3z"/>
		<path d="M4.9,5.8C4.6,5.7,4,5.5,3.2,5.3C2.6,5.1,2.3,5,2.2,5C2,4.9,1.9,4.8,1.8,4.7C1.7,4.6,1.7,4.5,1.7,4.4
			c0-0.2,0.1-0.3,0.3-0.5c0.2-0.2,0.6-0.2,1-0.2C3.4,3.7,3.7,3.8,4,4c0.2,0.1,0.3,0.3,0.4,0.6l0,0.1h1.5l0-0.2
			C5.7,4,5.6,3.6,5.4,3.3c-0.2-0.3-0.5-0.5-1-0.7C4,2.5,3.5,2.4,2.9,2.4c-0.4,0-0.7,0-1.1,0.1C1.5,2.7,1.3,2.8,1.1,2.9
			C0.8,3.1,0.6,3.4,0.5,3.6C0.3,3.9,0.2,4.2,0.2,4.6c0,0.4,0.1,0.7,0.3,1C0.7,5.9,1,6.1,1.3,6.3c0.3,0.2,0.9,0.4,1.8,0.6
			c0.6,0.2,1,0.3,1.1,0.4c0.2,0.1,0.3,0.3,0.3,0.5c0,0.2-0.1,0.5-0.3,0.6C4,8.5,3.6,8.6,3.1,8.6C2.6,8.6,2.2,8.5,2,8.3
			C1.8,8.1,1.6,7.8,1.5,7.5l0-0.1H0l0,0.2c0.1,0.8,0.5,1.4,1,1.8l0,0c0.5,0.4,1.2,0.6,2.1,0.6c0.6,0,1.1-0.1,1.5-0.3
			c0.5-0.2,0.8-0.5,1-0.9C5.9,8.4,6,8,6,7.6c0-0.4-0.1-0.8-0.3-1.1C5.5,6.2,5.3,6,4.9,5.8z"/>
	</g>
	<g>
		<rect x="48.6" y="0" width="1.5" height="9.7"/>
		<path d="M54.2,2.4c-0.9,0-1.6,0.3-2.2,0.8c-0.7,0.6-1.1,1.6-1.1,2.9c0,1.2,0.3,2.1,0.9,2.8c0.6,0.6,1.4,1,2.4,1
			c0.6,0,1.2-0.1,1.7-0.4c0.5-0.3,0.9-0.7,1.2-1.2c0.3-0.5,0.4-1.3,0.4-2.2c0-1.1-0.3-2-0.9-2.7C56,2.8,55.2,2.4,54.2,2.4z M55.5,8
			c-0.3,0.4-0.8,0.6-1.3,0.6c-0.5,0-1-0.2-1.3-0.6c-0.4-0.4-0.5-1-0.5-1.9c0-0.8,0.2-1.5,0.5-1.9c0.4-0.4,0.8-0.6,1.3-0.6
			c0.5,0,0.9,0.2,1.3,0.6c0.4,0.4,0.5,1,0.5,1.8C56,7,55.9,7.6,55.5,8L55.5,8z"/>
		<path d="M62.9,6.4c0,0.6-0.1,1-0.2,1.3c-0.1,0.3-0.3,0.5-0.6,0.6c-0.3,0.2-0.6,0.2-0.9,0.2c-0.3,0-0.6-0.1-0.8-0.2
			c-0.2-0.1-0.3-0.4-0.4-0.6C60,7.5,60,7.1,60,6.5v-4h-1.5V7c0,0.5,0,0.9,0.1,1.1C58.7,8.5,58.8,8.8,59,9c0.2,0.3,0.5,0.5,0.8,0.6
			c0.4,0.2,0.8,0.2,1.2,0.2c0.8,0,1.5-0.3,2-0.8v0.7h1.4V2.6h-1.5V6.4z"/>
		<path d="M70.9,3.3c-0.2-0.3-0.5-0.5-0.8-0.6c-0.4-0.2-0.8-0.2-1.2-0.2c-0.8,0-1.5,0.3-2,0.8V2.6h-1.4v7.2H67V5.9
			c0-0.8,0.2-1.4,0.5-1.7c0.3-0.3,0.7-0.4,1.2-0.4c0.3,0,0.5,0.1,0.7,0.2c0.2,0.1,0.3,0.3,0.4,0.5c0.1,0.2,0.1,0.5,0.1,1v4.3h1.5
			V5.4c0-0.5,0-0.9-0.1-1.2C71.3,3.9,71.1,3.6,70.9,3.3z"/>
		<path d="M84.7,7.5c-0.2,0.4-0.4,0.6-0.6,0.8c-0.3,0.2-0.6,0.3-1,0.3c-0.5,0-1-0.2-1.3-0.6c-0.3-0.3-0.5-0.8-0.6-1.5h5.1l0-0.2
			c0-0.2,0-0.2,0-0.3c0-1.2-0.3-2.1-0.9-2.7c-0.6-0.7-1.4-1-2.4-1c-1,0-1.8,0.3-2.4,1C80,4.1,79.7,5,79.7,6.2c0,1.2,0.3,2.1,0.9,2.7
			c0.6,0.6,1.5,1,2.5,1c0.8,0,1.5-0.2,2.1-0.6c0.5-0.4,0.9-1,1.1-1.7l0.1-0.2L84.7,7.5L84.7,7.5z M81.3,5.3c0.1-0.5,0.2-0.9,0.5-1.2
			c0.3-0.3,0.7-0.5,1.2-0.5c0.5,0,1,0.2,1.3,0.6c0.2,0.2,0.3,0.6,0.4,1H81.3z"/>
		<path d="M77.3,3.2c-0.5-0.5-1.1-0.7-1.8-0.7c-0.6,0-1.2,0.2-1.7,0.5c-0.5,0.3-0.8,0.8-1.1,1.3c-0.2,0.6-0.4,1.2-0.4,1.9
			c0,1,0.3,1.8,0.8,2.5c0.5,0.7,1.3,1.1,2.3,1.1c0.7,0,1.2-0.2,1.7-0.7c0,0.5,0,0.8-0.1,1c-0.1,0.4-0.3,0.6-0.5,0.8
			c-0.3,0.2-0.7,0.3-1.2,0.3c-0.5,0-0.8-0.1-1.1-0.3c-0.2-0.1-0.3-0.3-0.3-0.6l0-0.1h-1.4l0,0.1c0,0.7,0.3,1.3,0.8,1.7
			c0.5,0.4,1.2,0.6,2.1,0.6c0.7,0,1.3-0.1,1.8-0.4c0.5-0.3,0.9-0.7,1.1-1.1c0.2-0.5,0.3-1.2,0.3-2.3V2.6h-1.4V3.2z M76.8,4.3
			c0.3,0.4,0.5,1,0.5,1.8c0,0.8-0.2,1.4-0.5,1.8c-0.3,0.4-0.7,0.6-1.2,0.6c-0.5,0-0.9-0.2-1.2-0.6c-0.3-0.4-0.5-1-0.5-1.8
			c0-0.8,0.2-1.4,0.5-1.7c0.3-0.4,0.7-0.6,1.2-0.6C76,3.7,76.5,3.9,76.8,4.3z"/>
	</g>
</g>
</svg>
