<svg width="82" height="157" viewBox="0 0 82 157" fill="none" xmlns="http://www.w3.org/2000/svg">
<path d="M64.283 146.675L12.0745 146.675L12.0745 107.253L23.9265 107.253L23.9265 134.143L32.72 134.143L32.72 109.42L43.1277 109.42L43.1277 134.143L52.4309 134.143L52.4309 107.253L64.283 107.253L64.283 146.675Z" fill="#ffffff"/>
<path d="M54.2576 76.9514C54.2576 72.2786 52.8132 68.6677 49.8821 66.2039C46.9509 63.74 42.9578 62.5081 37.9026 62.5081C33.3997 62.5081 29.6189 63.7825 26.6453 66.2888C23.6716 68.8376 22.1848 72.3635 22.1848 76.9514C22.1848 81.5393 23.6716 85.1077 26.6453 87.614C29.6189 90.1628 33.3997 91.3948 37.9026 91.3948C42.9578 91.3948 46.9509 90.1628 49.8821 87.699C52.8132 85.2351 54.2576 81.6667 54.2576 76.9514ZM65.5149 76.9514C65.5149 81.1145 64.8352 84.9377 63.4333 88.3362C62.074 91.7346 60.1624 94.5808 57.6985 96.8323C55.2346 99.1262 52.3459 100.868 48.99 102.1C45.634 103.332 41.9807 103.927 38.03 103.927C32.8049 103.927 28.1321 102.865 24.054 100.656C19.9758 98.4465 16.7473 95.303 14.4109 91.1824C12.0745 87.1042 10.885 82.3464 10.885 76.9514C10.885 71.5564 12.0745 66.7986 14.4109 62.7205C16.7473 58.6423 19.9758 55.4988 24.054 53.3323C28.1321 51.1658 32.8049 50.0613 38.03 50.0613C42.4905 50.0613 46.5261 50.8259 50.1794 52.3552C53.8328 53.8845 56.9338 56.0935 59.3977 58.9397L71.5046 50.9958L71.6746 50.9958L71.6746 65.0144L64.6228 69.4749C65.2175 71.8538 65.5149 74.3176 65.5149 76.9514Z" fill="#ffffff"/>
<path d="M12.0745 32.5886L52.4309 32.5886L52.4309 10.1165L64.283 10.1165L64.283 45.1204L12.0745 45.1204L12.0745 32.5886Z" fill="#ffffff"/>
</svg>
